<mxfile host="app.diagrams.net" modified="2023-06-12T19:38:30.110Z" agent="Mozilla/5.0 (Windows NT 10.0; Win64; x64) AppleWebKit/537.36 (KHTML, like Gecko) Chrome/114.0.0.0 Safari/537.36 Edg/114.0.1823.43" etag="7dW5pISiJsTkLmAxsrKX" version="21.3.8" type="device">
  <diagram name="Page-1" id="Rw3zpymY9HejbE1gYEkG">
    <mxGraphModel dx="606" dy="658" grid="0" gridSize="10" guides="1" tooltips="1" connect="1" arrows="1" fold="1" page="1" pageScale="1" pageWidth="850" pageHeight="1100" math="0" shadow="0">
      <root>
        <mxCell id="0" />
        <mxCell id="1" parent="0" />
        <mxCell id="iXxomeSpusyKiIhvhr7H-2" value="" style="rounded=1;whiteSpace=wrap;html=1;dashed=1;dashPattern=1 4;" vertex="1" parent="1">
          <mxGeometry x="160" y="80" width="320" height="360" as="geometry" />
        </mxCell>
        <mxCell id="iXxomeSpusyKiIhvhr7H-4" value="Grid&lt;br&gt;&lt;br&gt;&lt;br&gt;&lt;br&gt;&lt;br&gt;&lt;br&gt;&lt;br&gt;&lt;br&gt;&lt;br&gt;&lt;br&gt;&lt;br&gt;&lt;br&gt;&lt;br&gt;&lt;br&gt;&lt;br&gt;&lt;br&gt;&lt;br&gt;&lt;br&gt;" style="rounded=0;whiteSpace=wrap;html=1;" vertex="1" parent="1">
          <mxGeometry x="190" y="106" width="260" height="308" as="geometry" />
        </mxCell>
        <mxCell id="iXxomeSpusyKiIhvhr7H-6" style="edgeStyle=orthogonalEdgeStyle;rounded=0;orthogonalLoop=1;jettySize=auto;html=1;entryX=0;entryY=0.25;entryDx=0;entryDy=0;" edge="1" parent="1" source="iXxomeSpusyKiIhvhr7H-1" target="iXxomeSpusyKiIhvhr7H-3">
          <mxGeometry relative="1" as="geometry" />
        </mxCell>
        <mxCell id="iXxomeSpusyKiIhvhr7H-1" value="User Input" style="rounded=0;whiteSpace=wrap;html=1;" vertex="1" parent="1">
          <mxGeometry x="20" y="178" width="120" height="60" as="geometry" />
        </mxCell>
        <mxCell id="iXxomeSpusyKiIhvhr7H-3" value="Players&lt;br&gt;&lt;br&gt;&lt;br&gt;&lt;br&gt;&lt;br&gt;&lt;br&gt;" style="rounded=0;whiteSpace=wrap;html=1;" vertex="1" parent="1">
          <mxGeometry x="260" y="170" width="120" height="150" as="geometry" />
        </mxCell>
        <mxCell id="iXxomeSpusyKiIhvhr7H-5" value="AIs" style="rounded=0;whiteSpace=wrap;html=1;" vertex="1" parent="1">
          <mxGeometry x="280" y="230" width="80" height="50" as="geometry" />
        </mxCell>
        <mxCell id="iXxomeSpusyKiIhvhr7H-7" value="Grid (Nested List)" style="rounded=0;whiteSpace=wrap;html=1;" vertex="1" parent="1">
          <mxGeometry x="260" y="336" width="120" height="60" as="geometry" />
        </mxCell>
      </root>
    </mxGraphModel>
  </diagram>
</mxfile>
